<svg xmlns="http://www.w3.org/2000/svg" viewBox="0 0 200 200" fill="none">
  <defs>
    <linearGradient id="bg" x1="0%" y1="0%" x2="100%" y2="100%">
      <stop offset="0%" style="stop-color:#3b82f6;stop-opacity:1" />
      <stop offset="100%" style="stop-color:#06b6d4;stop-opacity:1" />
    </linearGradient>
    <linearGradient id="p" x1="0%" y1="0%" x2="100%" y2="100%">
      <stop offset="0%" style="stop-color:#ffffff;stop-opacity:1" />
      <stop offset="100%" style="stop-color:#e0f2fe;stop-opacity:1" />
    </linearGradient>
  </defs>
  <rect width="200" height="200" rx="40" fill="url(#bg)"/>
  <path d="M60 55h30c22 0 35 12 35 28 0 10-5 18-14 23 12 4 18 14 18 27 0 20-16 32-40 32H60V55zm25 22v22h20c8 0 13-4 13-11s-5-11-13-11H85zm0 48v25h22c9 0 14-5 14-13s-5-13-14-13H85z" fill="url(#p)"/>
  <circle cx="155" cy="155" r="30" fill="url(#bg)" stroke="white" stroke-width="4"/>
  <path d="M145 155l8 8 14-14" stroke="white" stroke-width="4" stroke-linecap="round" stroke-linejoin="round"/>
</svg>
